<svg xmlns="http://www.w3.org/2000/svg" viewBox="0 0 956.45 636.35"><defs><style>.cls-1{fill:#fff;}.cls-2{fill:#ffe000;}</style></defs><g id="Layer_2" data-name="Layer 2"><g id="Layer_1-2" data-name="Layer 1"><g id="WEDDA"><polygon class="cls-1" points="40 308.92 40 636.35 0 636.35 0 354.94 40 308.92"/><polygon class="cls-1" points="120 253.57 120 636.35 80 636.35 80 262.91 97 243.35 120 253.57"/><polygon class="cls-1" points="200 261.35 200 636.35 160 636.35 160 271.35 178 279.35 200 261.35"/><rect class="cls-1" y="596.35" width="200" height="40"/><polygon class="cls-1" points="215.5 290.7 255.5 252.35 255.5 621.35 215.5 621.35 215.5 290.7"/><polygon class="cls-1" points="335.2 245.34 335.2 294.5 295.2 265.93 277.82 253.52 255.5 271.78 215.5 304.51 215.5 252.83 255.5 220.1 276.18 203.18 295.2 216.77 335.2 245.34"/><rect class="cls-1" x="215.5" y="596.35" width="120" height="40"/><rect class="cls-1" x="216" y="410.35" width="120" height="40"/><polygon class="cls-1" points="551 173.38 551 621.18 511 621.18 511 144 551 173.38"/><polygon class="cls-1" points="391 225 391 621.18 351 621.18 351 251.62 391 225"/><rect class="cls-1" x="351" y="596.35" width="200" height="40"/><polygon class="cls-1" points="551 163.87 551 213.86 511 183.87 506.57 180.55 391 260.09 351 287.62 351 239.05 391 211.53 507.58 131.3 511 133.87 551 163.87"/><polygon class="cls-1" points="766 126 766 636.35 726 636.35 726 142.24 766 126"/><polygon class="cls-1" points="606 190.78 606 636.35 566 636.35 566 189 581.91 200.57 606 190.78"/><rect class="cls-1" x="566" y="596.35" width="200" height="40"/><polygon class="cls-1" points="726 126.68 766 109.93 766 153.3 726 170.05 606 220.32 576.24 232.79 566 225.11 566 175.12 581.91 187.05 606 176.96 726 126.68"/><polygon class="cls-1" points="899.75 63 899.75 636.35 859.75 636.35 859.75 79.5 899.75 63"/><polygon class="cls-1" points="820.25 99 820.25 636.35 780.25 636.35 780.25 115.4 820.25 99"/><polygon class="cls-1" points="899.75 53.89 899.75 97.27 859.75 114.03 820.25 130.57 780.25 147.33 780.25 103.96 820.25 87.2 859.75 70.65 899.75 53.89"/><polygon class="cls-1" points="899.75 224.89 899.75 268.27 859.75 285.03 820.25 301.57 780.25 318.33 780.25 274.96 820.25 258.2 859.75 241.65 899.75 224.89"/></g><g id="Arrow"><polygon class="cls-2" points="872.65 31.05 863.4 34.93 577.66 154.63 506.82 101.5 337 218.39 274.4 174.1 176.62 254.11 97.83 220.62 0.12 335.75 0.12 304.84 92.1 196.46 173.31 230.97 273.52 148.98 337.15 194 507.33 76.88 580.49 131.75 855.66 16.48 864.92 12.6 872.65 31.05"/><polygon class="cls-2" points="920.88 0 860.03 60.75 864.89 23.46 834.9 0.76 920.88 0"/></g><g id="TM"><path class="cls-1" d="M926.09,57.21h-6.85a.27.27,0,0,0-.29.29V81.4h-3.3V57.5c0-.18-.08-.29-.26-.29h-6.78v-3.3h17.48Z"/><path class="cls-1" d="M932.15,81.4V54h4.76l7.33,21.48c0,.07,0,.11.07.11s.08,0,.08-.11L951.68,54h4.77V81.36h-3.3V59.15c0-.07-7.52,22.07-7.55,22.25h-2.53L935.44,59V81.4Z"/></g></g></g></svg>